<svg width="293" height="312" viewBox="0 0 293 312" fill="none" xmlns="http://www.w3.org/2000/svg">
<path d="M207.52 64.815C211.99 67.3694 200.784 87.452 199.502 89.6946C190.158 106.047 175.512 123.222 159.497 133.585C157.913 134.61 157.448 133.203 157.596 131.601C158.881 117.643 167.004 102.471 172.639 90.1079C182.272 68.9749 192.571 44.6371 209.339 27.9503C214.421 22.8921 229.31 11.6536 237.607 16.8743C243.337 20.4796 239.542 32.1853 238.103 36.2159C228.754 62.3931 204.789 81.2004 180.905 93.4968C135.606 116.818 82.4778 129.652 31.7926 133.172C2.47671 135.208 23.7082 132.943 5.42522 132.428C0.790374 132.297 1.20692 133.012 4.59865 136.065C22.3502 152.041 46.6223 163.051 67.8308 173.26C99.4054 188.459 132.017 200.685 165.779 210.042C194.65 218.044 224.061 225.121 253.229 232.029C254.411 232.309 270.832 233.319 266.702 226.987C264.989 224.361 260.096 221.446 258.023 219.878C237.862 204.635 218.233 188.869 199.089 172.351C138.902 120.42 76.2122 68.6726 21.7085 10.6751C19.1841 7.98879 11.6056 -0.0559801 14.2694 2.49209C27.7519 15.3883 40.6409 29.1389 53.2833 42.8284C120.009 115.081 175.449 196.245 240.252 269.968C252.73 284.164 268.773 305.548 288.689 309.974C292.3 310.776 290.339 307.324 289.35 305.841" stroke="#0F0F11" stroke-opacity="0.05" stroke-width="3" stroke-linecap="round"/>
</svg>
